<?xml version="1.0" encoding="UTF-8"?>
<svg width="18px" height="19px" viewBox="0 0 18 19" version="1.1" xmlns="http://www.w3.org/2000/svg" xmlns:xlink="http://www.w3.org/1999/xlink">
    <!-- Generator: Sketch 52.5 (67469) - http://www.bohemiancoding.com/sketch -->
    <title>Facebook BIS Copy 4</title>
    <desc>Created with Sketch.</desc>
    <g id="Page-1" stroke="none" stroke-width="1" fill="none" fill-rule="evenodd">
        <g id="iPhone-8-Copy" transform="translate(-227.000000, -1187.000000)" fill="#FFFFFF">
            <g id="Group-19" transform="translate(0.000000, 1108.000000)">
                <g id="Tel" transform="translate(224.000000, 76.000000)">
                    <path d="M6.70119357,3.00603818 C5.88947093,2.94265777 5.0153081,3.38632064 4.45334627,3.95674432 C3.45430303,5.03421127 2.8923412,6.68210191 3.01722161,7.63280804 C3.76650404,13.0835232 10.8846872,20.8159331 16.1921044,21.9567805 C17.0662672,22.1469217 18.7521527,21.7032588 19.8760764,20.7525527 C20.5004784,20.182129 20.9375598,19.3581837 21,18.5342384 C21,17.5201518 17.0662672,14.7314139 15.8799034,15.1116963 C15.3179415,15.3018375 15.0681807,16.1257829 14.8184199,16.6328261 C14.3188983,17.4567714 13.6944963,17.2666302 13.0700943,16.6962065 C11.3842088,15.3018375 9.19880168,12.9567624 7.94999762,11.1187305 C7.450476,10.4849264 7.26315539,9.78774195 8.13731823,9.40745949 C8.63683986,9.15393786 9.44856249,8.96379663 9.6983233,8.39337295 C10.1978449,7.25252559 7.70023681,3.00603818 6.70119357,3.00603818 Z" id="Path"></path>
                </g>
            </g>
        </g>
    </g>
</svg>