<?xml version="1.0" encoding="UTF-8"?>
<svg width="22px" height="17px" viewBox="0 0 22 17" version="1.1" xmlns="http://www.w3.org/2000/svg" xmlns:xlink="http://www.w3.org/1999/xlink">
    <!-- Generator: Sketch 52.5 (67469) - http://www.bohemiancoding.com/sketch -->
    <title>Facebook BIS Copy 3</title>
    <desc>Created with Sketch.</desc>
    <g id="Page-1" stroke="none" stroke-width="1" fill="none" fill-rule="evenodd">
        <g id="iPhone-8-Copy" transform="translate(-177.000000, -1188.000000)" fill="#FFFFFF">
            <g id="Group-19" transform="translate(0.000000, 1108.000000)">
                <g id="Radio" transform="translate(176.000000, 76.000000)">
                    <g id="noun_Radio_2146961" transform="translate(1.000000, 4.000000)">
                        <g id="Group" fill-rule="nonzero">
                            <path d="M10.8641975,6.3600823 C9.86831276,6.3600823 9.05349794,7.15226337 9.05349794,8.14814815 C9.05349794,9.14403292 9.86831276,9.95884774 10.8641975,9.95884774 C11.8600823,9.95884774 12.6522634,9.14403292 12.6522634,8.14814815 C12.6522634,7.15226337 11.8600823,6.3600823 10.8641975,6.3600823 Z" id="Path"></path>
                            <path d="M18.4691358,0.543209877 C18.0164609,0.0905349794 17.3148148,0.0905349794 16.8621399,0.543209877 C16.409465,0.995884774 16.409465,1.69753086 16.8621399,2.15020576 C20.1666667,5.45473251 20.1666667,10.8415638 16.8621399,14.1460905 C16.409465,14.5987654 16.409465,15.3004115 16.8621399,15.7530864 C17.0884774,15.9794239 17.382716,16.0925926 17.654321,16.0925926 C17.9259259,16.0925926 18.2427984,15.9794239 18.4465021,15.7530864 C22.6563786,11.5658436 22.6563786,4.73045267 18.4691358,0.543209877 Z" id="Path"></path>
                            <path d="M15.3004115,3.71193416 C14.8477366,3.25925926 14.1460905,3.25925926 13.6934156,3.71193416 C13.2407407,4.16460905 13.2407407,4.86625514 13.6934156,5.31893004 C15.255144,6.88065844 15.255144,9.41563786 13.6934156,10.9773663 C13.2407407,11.4300412 13.2407407,12.1316872 13.6934156,12.5843621 C13.9197531,12.8106996 14.2139918,12.9238683 14.4855967,12.9238683 C14.7798354,12.9238683 15.0740741,12.8106996 15.2777778,12.5843621 C17.744856,10.1399177 17.744856,6.1563786 15.3004115,3.71193416 Z" id="Path"></path>
                            <path d="M4.86625514,2.15020576 C5.31893004,1.69753086 5.31893004,0.995884774 4.86625514,0.543209877 C4.41358025,0.0905349794 3.71193416,0.0905349794 3.25925926,0.543209877 C-0.927983539,4.73045267 -0.927983539,11.5658436 3.25925926,15.7530864 C3.48559671,15.9794239 3.77983539,16.0925926 4.05144033,16.0925926 C4.34567901,16.0925926 4.6399177,15.9794239 4.8436214,15.7530864 C5.2962963,15.3004115 5.2962963,14.5987654 4.8436214,14.1460905 C1.5617284,10.8415638 1.5617284,5.45473251 4.86625514,2.15020576 Z" id="Path"></path>
                            <path d="M8.03497942,5.31893004 C8.48765432,4.86625514 8.48765432,4.16460905 8.03497942,3.71193416 C7.58230453,3.25925926 6.88065844,3.25925926 6.42798354,3.71193416 C3.98353909,6.1563786 3.98353909,10.1399177 6.42798354,12.5843621 C6.65432099,12.8106996 6.94855967,12.9238683 7.22016461,12.9238683 C7.51440329,12.9238683 7.80864198,12.8106996 8.01234568,12.5843621 C8.46502058,12.1316872 8.46502058,11.4300412 8.01234568,10.9773663 C6.47325103,9.41563786 6.47325103,6.88065844 8.03497942,5.31893004 Z" id="Path"></path>
                        </g>
                    </g>
                </g>
            </g>
        </g>
    </g>
</svg>