<?xml version="1.0" encoding="UTF-8"?>
<svg width="20px" height="17px" viewBox="0 0 20 17" version="1.1" xmlns="http://www.w3.org/2000/svg" xmlns:xlink="http://www.w3.org/1999/xlink">
    <!-- Generator: Sketch 52.5 (67469) - http://www.bohemiancoding.com/sketch -->
    <title>Facebook BIS Copy</title>
    <desc>Created with Sketch.</desc>
    <g id="Page-1" stroke="none" stroke-width="1" fill="none" fill-rule="evenodd">
        <g id="iPhone-8-Copy" transform="translate(-130.000000, -1188.000000)" fill="#FFFFFF" fill-rule="nonzero">
            <g id="Group-19" transform="translate(0.000000, 1108.000000)">
                <g id="Twitter" transform="translate(128.000000, 76.000000)">
                    <path d="M22,5.92416667 C21.2641667,6.25083333 20.4733333,6.47083333 19.6433333,6.57 C20.4908333,6.0625 21.1416667,5.25833333 21.4475,4.3 C20.655,4.77 19.7766667,5.11166667 18.8416667,5.29583333 C18.0941667,4.49833333 17.0266667,4 15.8466667,4 C13.1975,4 11.2508333,6.47166667 11.8491667,9.0375 C8.44,8.86666667 5.41666667,7.23333333 3.3925,4.75083333 C2.3175,6.595 2.835,9.0075 4.66166667,10.2291667 C3.99,10.2075 3.35666667,10.0233333 2.80416667,9.71583333 C2.75916667,11.6166667 4.12166667,13.395 6.095,13.7908333 C5.5175,13.9475 4.885,13.9841667 4.24166667,13.8608333 C4.76333333,15.4908333 6.27833333,16.6766667 8.075,16.71 C6.35,18.0625 4.17666667,18.6666667 2,18.41 C3.81583333,19.5741667 5.97333333,20.2533333 8.29,20.2533333 C15.9083333,20.2533333 20.2125,13.8191667 19.9525,8.04833333 C20.7541667,7.46916667 21.45,6.74666667 22,5.92416667 Z" id="Path"></path>
                </g>
            </g>
        </g>
    </g>
</svg>