<?xml version="1.0" encoding="UTF-8"?>
<svg width="18px" height="18px" viewBox="0 0 18 18" version="1.1" xmlns="http://www.w3.org/2000/svg" xmlns:xlink="http://www.w3.org/1999/xlink">
    <!-- Generator: Sketch 58 (84663) - https://sketch.com -->
    <title>⚛️ Icon 24</title>
    <desc>Created with Sketch.</desc>
    <g id="Page-1" stroke="none" stroke-width="1" fill="none" fill-rule="evenodd">
        <g id="iPhone-8-Copy-3" transform="translate(-11.000000, -91.000000)">
            <g id="2.-Components/08.-Message-bars/1.-Error" transform="translate(0.000000, 76.000000)">
                <g id="States/Errors/Error" transform="translate(8.000000, 12.000000)">
                    <g id="Icon">
                        <circle id="🎨-Color" fill="#FFFFFF" cx="12" cy="12" r="9"></circle>
                        <path d="M11.1818182,8.17282306 C11.1818182,7.72592159 11.5449803,7.36363636 12,7.36363636 L12,7.36363636 C12.4518693,7.36363636 12.8181818,7.7209953 12.8181818,8.17282306 L12.8181818,12.5544497 C12.8181818,13.0013511 12.4550197,13.3636364 12,13.3636364 L12,13.3636364 C11.5481307,13.3636364 11.1818182,13.0062774 11.1818182,12.5544497 L11.1818182,8.17282306 Z M10.9090909,15.8181818 C10.9090909,15.2156894 11.3933071,14.7272727 12,14.7272727 L12,14.7272727 C12.6024925,14.7272727 13.0909091,15.2114889 13.0909091,15.8181818 L13.0909091,15.8181818 C13.0909091,16.4206743 12.6066929,16.9090909 12,16.9090909 L12,16.9090909 C11.3975075,16.9090909 10.9090909,16.4248747 10.9090909,15.8181818 L10.9090909,15.8181818 Z" id="🎨-Color" fill="#FF4C40"></path>
                    </g>
                </g>
            </g>
        </g>
    </g>
</svg>