
<svg width="38px" height="38px" viewBox="0 0 38 38" version="1.1" xmlns="http://www.w3.org/2000/svg" xmlns:xlink="http://www.w3.org/1999/xlink">
    <g id="Page-1" stroke="none" stroke-width="1" fill="none" fill-rule="evenodd">
        <g id="iPhone-8-Copy-2" transform="translate(-258.000000, -210.000000)" fill="#3373C3">
            <g id="Group-2-Copy" transform="translate(195.000000, 180.000000)">
                <g id="Séisme" transform="translate(57.000000, 24.000000)">
                    <g id="Group">
                        <path d="M43.0555556,31.25 C43.4390866,31.25 43.75,31.5609134 43.75,31.9444444 C43.75,32.3279755 43.4390866,32.6388889 43.0555556,32.6388889 L41.2430556,32.6388889 L40.9652778,34.8125 C40.9412353,34.9977004 40.8436124,35.1654116 40.6944444,35.2777778 L38.6736111,36.8055556 L42.7638889,39.7152778 C42.9166956,39.8234322 43.0193625,39.9887009 43.0486111,40.1736111 C43.0762922,40.3578934 43.0287478,40.5455686 42.9166667,40.6944444 L40.8333333,43.4722222 C40.7021845,43.6470874 40.4963592,43.75 40.2777778,43.75 C40.1275207,43.75 39.9813168,43.7012654 39.8611111,43.6111111 C39.5542863,43.3809925 39.4921036,42.9457137 39.7222222,42.6388889 L41.4166667,40.4305556 L37.8958333,37.9166667 L36.1111111,43.2777778 C36.0118098,43.5731743 35.7278836,43.7662441 35.4166667,43.75 C35.3428985,43.7595206 35.2682126,43.7595206 35.1944444,43.75 C35.0074912,43.6846561 34.857331,43.5426002 34.7817257,43.3595559 C34.7061205,43.1765117 34.7122639,42.9698955 34.7986111,42.7916667 L36.8819444,36.5416667 C36.9102038,36.4664966 36.9500362,36.3962042 37,36.3333333 C37.024189,36.3021847 37.0521847,36.274189 37.0833333,36.25 L39.625,34.3402778 L39.8402778,32.6388889 L28.4027778,32.6388889 L29.7916667,35.0763889 C29.9460779,35.3475788 29.9006266,35.6884633 29.6805556,35.9097222 L28.6458333,36.9375 L32.0763889,37.5069444 C32.3514092,37.5519632 32.572879,37.7570278 32.6388889,38.0277778 L33.3333333,40.8055556 C33.4253808,41.1890866 33.1890866,41.5746192 32.8055555,41.6666666 C32.4220245,41.7587141 32.0364919,41.5224199 31.9444444,41.1388889 L31.3541667,38.8055556 L28.5763889,38.3402778 L29.7222222,39.8611111 C29.9312832,40.1374726 29.9046139,40.5256594 29.6597222,40.7708333 L26.8819444,43.5486111 C26.751551,43.6800782 26.5740538,43.7540266 26.3888889,43.7540266 C26.2037239,43.7540266 26.0262268,43.6800782 25.8958333,43.5486111 C25.7643662,43.4182176 25.6904178,43.2407205 25.6904178,43.0555556 C25.6904178,42.8703906 25.7643662,42.6928935 25.8958333,42.5625 L28.25,40.2152778 L26.5277778,37.9166667 C26.3187168,37.6403052 26.3453861,37.2521183 26.5902778,37.0069444 L28.3055556,35.2986111 L26.8194444,32.6388889 L14.6388889,32.6388889 L15.8055556,35.5208333 L18.2361111,36.1319444 C18.4962103,36.1961392 18.6961869,36.404223 18.75,36.6666667 L19.4444444,40.1388889 C19.4852097,40.3234372 19.4489957,40.5166287 19.344159,40.6738838 C19.2393223,40.8311388 19.0749201,40.9388715 18.8888889,40.9722222 L18.75,40.9722222 C18.4147495,40.9789831 18.1225511,40.7452245 18.0555556,40.4166667 L17.4652778,37.4027778 L15.1180556,36.8125 C14.9004687,36.7590435 14.7220414,36.6038893 14.6388889,36.3958333 L13.25,32.9236111 L11.9722222,34.7222222 L13.7291667,37.0833333 C13.9286094,37.3357255 13.9286094,37.6920523 13.7291667,37.9444444 L10.2569444,42.1111111 C10.1247524,42.2698195 9.92877239,42.3614465 9.72222222,42.3611111 C9.56250497,42.3673428 9.40552728,42.3182873 9.27777778,42.2222222 C9.13575894,42.1044804 9.04642511,41.9350689 9.02948825,41.7513691 C9.01255139,41.5676693 9.06940354,41.3847796 9.1875,41.2430556 L12.3125,37.5 L10.5486111,35.1388889 C10.3702808,34.8948474 10.3702808,34.5634859 10.5486111,34.3194444 L11.7430556,32.6388889 L6.94444444,32.6388889 C6.56091337,32.6388889 6.25,32.3279755 6.25,31.9444444 C6.25,31.5609134 6.56091337,31.25 6.94444444,31.25 L14.5833333,31.25 L14.5833333,18.0555556 L11.8055556,18.0555556 C11.5115456,18.0538624 11.2504646,17.8672017 11.1537537,17.5895477 C11.0570427,17.3118938 11.1456636,17.0034268 11.375,16.8194444 L24.5694444,6.40277778 C24.8218366,6.20333501 25.1781634,6.20333501 25.4305556,6.40277778 L38.625,16.8194444 C38.8543364,17.0034268 38.9429573,17.3118938 38.8462463,17.5895477 C38.7495354,17.8672017 38.4884544,18.0538624 38.1944444,18.0555556 L35.4166667,18.0555556 L35.4166667,31.25 L43.0555556,31.25 Z M25,7.82638889 L13.8055556,16.6666667 L36.1944444,16.6666667 L25,7.82638889 Z M27.0833333,31.25 L27.0833333,24.3055556 L22.9166667,24.3055556 L22.9166667,31.25 L27.0833333,31.25 Z M28.4722222,31.25 L34.0277778,31.25 L34.0277778,18.0555556 L15.9722222,18.0555556 L15.9722222,31.25 L21.5277778,31.25 L21.5277778,23.6111111 C21.5277778,23.22758 21.8386911,22.9166667 22.2222222,22.9166667 L27.7777778,22.9166667 C28.1613089,22.9166667 28.4722222,23.22758 28.4722222,23.6111111 L28.4722222,31.25 Z M7.79166667,24.3888889 C6.77974232,23.1216736 6.77974232,21.3227708 7.79166667,20.0555556 C8.40475716,19.2931507 8.40475716,18.2068493 7.79166667,17.4444444 C6.77974232,16.1772292 6.77974232,14.3783264 7.79166667,13.1111111 L9.18055556,11.375 C9.29529171,11.2298741 9.46319275,11.1365287 9.64701548,11.1156694 C9.83083822,11.0948101 10.0153857,11.1481613 10.1597222,11.2638889 C10.4553726,11.5044589 10.5018628,11.938367 10.2638889,12.2361111 L8.875,13.9722222 C8.26190951,14.7346271 8.26190951,15.8209285 8.875,16.5833333 C9.88692435,17.8505486 9.88692435,19.6494514 8.875,20.9166667 C8.26190951,21.6790715 8.26190951,22.7653729 8.875,23.5277778 L10.2638889,25.2638889 C10.5018628,25.561633 10.4553726,25.9955411 10.1597222,26.2361111 C10.0153857,26.3518387 9.83083822,26.4051899 9.64701548,26.3843306 C9.46319275,26.3634713 9.29529171,26.2701259 9.18055556,26.125 L7.79166667,24.3888889 Z M39.7361111,25.2638889 L41.125,23.5277778 C41.7380905,22.7653729 41.7380905,21.6790715 41.125,20.9166667 C40.1130757,19.6494514 40.1130757,17.8505486 41.125,16.5833333 C41.7380905,15.8209285 41.7380905,14.7346271 41.125,13.9722222 L39.7361111,12.2361111 C39.5561256,12.0454338 39.4988843,11.7696381 39.5881226,11.5230835 C39.6773609,11.276529 39.8978613,11.1012594 40.1581926,11.069951 C40.4185239,11.0386425 40.674293,11.1566341 40.8194444,11.375 L42.2083333,13.1111111 C43.2202577,14.3783264 43.2202577,16.1772292 42.2083333,17.4444444 C41.5952428,18.2068493 41.5952428,19.2931507 42.2083333,20.0555556 C43.2202577,21.3227708 43.2202577,23.1216736 42.2083333,24.3888889 L40.8194444,26.125 C40.6884393,26.2907899 40.4890778,26.3879147 40.2777778,26.3888889 C40.1211359,26.3879803 39.9694023,26.3341393 39.8472222,26.2361111 C39.5493693,25.9976014 39.4997522,25.5634513 39.7361111,25.2638889 Z" id="Combined-Shape"></path>
                    </g>
                </g>
            </g>
        </g>
    </g>
</svg>