
<svg width="42px" height="39px" viewBox="0 0 42 39" version="1.1" xmlns="http://www.w3.org/2000/svg" xmlns:xlink="http://www.w3.org/1999/xlink">
    <g id="Page-1" stroke="none" stroke-width="1" fill="none" fill-rule="evenodd">
        <g id="iPhone-8" transform="translate(-256.000000, -739.000000)" fill="#3373C3">
            <g id="Group-14-Copy" transform="translate(195.000000, 718.000000)">
                <g id="Socket" transform="translate(57.000000, 16.000000)">
                    <g id="fenêtre-copy">
                        <path d="M42.8092866,35.3337836 L42.8092866,35.3337836 L44.7647059,35.3337836 C45.4469397,35.3337836 46,35.8880692 46,36.5718145 C46,37.2555598 45.4469397,37.8098454 44.7647059,37.8098454 L42.8092866,37.8098454 C42.2211902,41.3230225 39.1725251,44 35.5,44 L29.9411765,44 C29.2589427,44 28.7058824,43.4457144 28.7058824,42.7619691 L28.7058824,30.3816599 C28.7058824,29.6979146 29.2589427,29.143629 29.9411765,29.143629 L35.5,29.143629 C39.1725251,29.143629 42.2211902,31.8206065 42.8092866,35.3337836 Z M36.1176471,31.6580041 L36.1176471,41.4856249 C38.5550751,41.1810085 40.4411765,39.0971611 40.4411765,36.5718145 C40.4411765,34.0464679 38.5550751,31.9626205 36.1176471,31.6580041 Z M33.6470589,31.6196908 L31.1764706,31.6196908 L31.1764706,41.5239382 L33.6470589,41.5239382 L33.6470589,31.6196908 Z M21.2941176,32.2387063 L24.3823529,32.2387063 C25.0645867,32.2387063 25.617647,32.7929919 25.617647,33.4767372 C25.617647,34.1604825 25.0645867,34.7147681 24.3823529,34.7147681 L21.2941176,34.7147681 L21.2941176,38.4288609 L24.3823529,38.4288609 C25.0645867,38.4288609 25.617647,38.9831465 25.617647,39.6668918 C25.617647,40.3506371 25.0645867,40.9049227 24.3823529,40.9049227 L21.2941176,40.9049227 L21.2941176,42.7619691 C21.2941176,43.4457144 20.7410573,44 20.0588235,44 L14.5,44 C10.8274749,44 7.77880979,41.3230225 7.19071344,37.8098454 L5.23529411,37.8098454 C4.55306032,37.8098454 4,37.2555598 4,36.5718145 C4,35.8880692 4.55306032,35.3337836 5.23529411,35.3337836 L7.19071344,35.3337836 C7.77880979,31.8206065 10.8274749,29.143629 14.5,29.143629 L20.0588235,29.143629 C20.7410573,29.143629 21.2941176,29.6979146 21.2941176,30.3816599 L21.2941176,32.2387063 L21.2941176,32.2387063 Z M13.882353,41.4856249 L13.882353,41.4856249 L13.882353,31.6580041 C11.444925,31.9626205 9.55882353,34.0464679 9.55882353,36.5718145 C9.55882353,39.0971611 11.444925,41.1810085 13.882353,41.4856249 Z M16.3529411,41.5239382 L18.8235294,41.5239382 L18.8235294,31.6196908 L16.3529411,31.6196908 L16.3529411,41.5239382 Z M27.4705882,12.4302116 L29.9411765,12.4302116 C30.9114204,12.4302116 31.5029323,13.4998096 30.988704,14.3243977 L24.8122335,24.228645 C24.1544585,25.2834164 22.5294118,24.8163265 22.5294118,23.5724899 L22.5294118,18.6203662 L20.0588235,18.6203662 C19.1169309,18.6203662 18.5215586,17.6062808 18.9789819,16.7810942 L25.1554525,5.63881595 C25.7744831,4.52209288 27.4705882,4.96257127 27.4705882,6.240057 L27.4705882,12.4302116 Z M25,19.2557286 L27.7124001,14.9062735 L26.2352941,14.9062735 C25.5530604,14.9062735 25,14.3519878 25,13.6682425 L25,11.0177743 L22.1582238,16.1443044 L23.7647059,16.1443044 C24.4469397,16.1443044 25,16.69859 25,17.3823352 L25,19.2557286 Z" id="Shape" fill-rule="nonzero"></path>
                    </g>
                </g>
            </g>
        </g>
    </g>
</svg>