
<svg width="38px" height="38px" viewBox="0 0 38 38" version="1.1" xmlns="http://www.w3.org/2000/svg" xmlns:xlink="http://www.w3.org/1999/xlink">
    <g id="Page-1" stroke="none" stroke-width="1" fill="none" fill-rule="evenodd">
        <g id="iPhone-8-Copy-2" transform="translate(-79.000000, -368.000000)" fill="#3373C3">
            <g id="Group-2-Copy-2" transform="translate(16.000000, 338.000000)">
                <g id="Forest-Fire" transform="translate(57.000000, 24.000000)">
                    <g id="noun_forest-fire_947315">
                        <path d="M43.75,23.0982974 L42.8627622,22.950663 C41.3907343,22.7046056 39.9125874,22.7675107 38.4069056,23.1415179 L36.1809441,19.6128412 L38.9042832,19.6128412 L30.4759615,6.25 L25.1582168,14.6814235 L19.9361888,6.40148576 L10.7648601,20.9428348 L13.7674825,20.9428348 L7.72814685,30.5176762 L10.9069056,30.5176762 L6.25,37.9015371 L16.9313811,37.9015371 L16.9313811,42.2312911 L22.9409965,42.2312911 L22.9409965,41.6980954 C23.8684441,42.4080245 24.9152098,42.9677515 25.9763986,43.3721415 L26.9672203,43.75 L26.8671329,42.7135635 C26.534528,39.2828818 29.9881993,34.6839625 32.0122378,32.5250765 C31.8347902,33.6132919 31.8181818,34.9903574 32.3509615,35.8945648 C32.7421329,36.5574219 33.3693182,36.9074653 34.1656469,36.9074653 C34.9484266,36.9074653 35.8771853,36.5689759 37.0048077,35.8723126 C37.0681818,35.8329434 37.1302448,35.7922905 37.1914336,35.7529213 C37.2486888,35.7156918 37.3229895,35.6673361 37.3789336,35.6305345 C37.4641608,35.7815923 37.6188811,36.1419059 37.7998252,36.972938 L37.8693182,37.2908869 C38.0926573,38.3067829 38.3701923,39.5708759 38.5048077,40.8563653 L38.6354895,42.1076205 L39.5935315,41.2701696 C41.2421329,39.8284873 42.1507867,38.0033835 42.1507867,36.1312078 C42.1507867,34.6591428 41.9899476,33.439982 41.8483392,32.3641763 C41.5126748,29.8171615 41.2478147,27.805482 43.3343531,23.8792621 L43.75,23.0982974 Z M30.4759615,8.6930288 L36.5533217,18.3294915 L33.8299825,18.3294915 L37.1184441,23.5437683 C36.6490385,23.7132269 36.1770105,23.9040818 35.7001748,24.1334501 C35.2521853,21.1674959 33.4694056,18.7184761 30.2766608,16.6704229 L28.8395979,15.7486706 L29.2840909,17.3735051 C29.9532343,19.8191015 29.6857517,22.8205735 28.7858392,25.1934225 L26.1048951,20.9432627 L29.1075175,20.9432627 L25.9291958,15.9035797 L30.4759615,8.6930288 Z M18.2425699,40.9479414 L18.2425699,36.6177595 L8.60096154,36.6177595 L13.2583042,29.2334706 L10.0795455,29.2334706 L16.1184441,19.6586293 L13.1158217,19.6586293 L19.9361888,8.84451456 L26.756993,19.6590572 L23.7543706,19.6590572 L28.1306818,26.5974473 C27.8513986,27.0942692 27.541958,27.5453031 27.2006119,27.9227337 C26.6464161,25.9226082 25.2268357,23.6926865 23.3326049,22.7247181 L21.9593531,22.0233476 L22.4007867,23.4765839 C23.2106643,26.1455576 22.4331294,27.6972168 21.4488636,29.6618244 C20.8981643,30.761166 20.2740385,32.0077141 19.9034091,33.5717831 C19.2202797,36.4542918 20.0777972,38.7710825 21.6298077,40.4947679 L21.6298077,40.9487972 L18.2425699,40.9487972 L18.2425699,40.9479414 Z M40.5480769,32.5289278 C40.6914336,33.6171433 40.8395979,34.7421604 40.8395979,36.1316357 C40.8395979,37.2801887 40.4230769,38.3846654 39.6241259,39.3778814 C39.4807692,38.5194621 39.3037587,37.7141056 39.1512238,37.0212936 L39.0821678,36.7050564 C38.8282343,35.5389584 38.472028,34.2954058 37.4576049,34.2954058 C37.0620629,34.2954058 36.7447552,34.502094 36.4645979,34.6852463 C36.4130245,34.7190524 36.3597028,34.7537144 36.305507,34.7870926 C35.1853147,35.4790487 34.5240385,35.6241156 34.1660839,35.6241156 C33.8496503,35.6241156 33.6494755,35.5184179 33.4973776,35.2702209 C32.8986014,34.2958337 33.4104021,31.9542233 33.5983392,31.6058917 C33.8164336,31.2357358 34.0301573,30.8086658 33.7998252,30.4175415 C33.6708916,30.1988714 33.4370629,30.068782 33.173951,30.068782 C32.9562937,30.068782 32.5030594,30.068782 30.868007,31.8284131 C28.4615385,34.4190764 25.7897727,38.4278859 25.5520105,41.787532 C22.6988636,40.4066152 20.2648601,37.7235199 21.180507,33.861061 C21.5174825,32.4407751 22.0812937,31.3149021 22.6263112,30.2266866 C23.4453671,28.5924377 24.2272727,27.0305083 24.0144231,24.8540773 C25.1678322,26.0591165 25.9851399,27.851698 26.1228147,29.2279076 L26.2338287,30.3319564 L27.1560315,29.6879279 C29.8168706,27.8294459 31.3902972,22.9087263 30.8688811,18.673116 C33.1962413,20.5106297 34.3557692,22.6070385 34.4895105,25.1775892 L34.5437063,26.212314 L35.465472,25.704366 C37.6695804,24.4903403 39.7067308,23.9674149 41.7530594,24.111198 C39.9348776,27.8760898 40.2202797,30.0443902 40.5480769,32.5289278 Z" id="Shape"></path>
                    </g>
                </g>
            </g>
        </g>
    </g>
</svg>