
<svg width="38px" height="38px" viewBox="0 0 38 38" version="1.1" xmlns="http://www.w3.org/2000/svg" xmlns:xlink="http://www.w3.org/1999/xlink">
    <g id="Page-1" stroke="none" stroke-width="1" fill="none" fill-rule="evenodd">
        <g id="iPhone-8-Copy-2" transform="translate(-79.000000, -210.000000)" fill="#3373C3">
            <g id="Group-2" transform="translate(16.000000, 180.000000)">
                <g id="Inondation" transform="translate(57.000000, 24.000000)">
                    <g id="noun_Flood_2129580-(1)">
                        <path d="M37.7717391,18.9677402 L37.7717391,30.7065217 C37.7717391,31.306831 37.2850918,31.7934783 36.6847826,31.7934783 C36.0844734,31.7934783 35.5978261,31.306831 35.5978261,30.7065217 L35.5978261,17.2596658 L24.7282609,8.71929293 L13.8586957,17.2596658 L13.8586957,26.9021739 C13.8586957,27.5024832 13.3720484,27.9891304 12.7717391,27.9891304 C12.1714299,27.9891304 11.6847826,27.5024832 11.6847826,26.9021739 L11.6847826,18.9677402 L10.1824147,20.1481723 C9.71038043,20.5190565 9.02705978,20.4370576 8.65617554,19.9650234 C8.2852913,19.4929891 8.36729022,18.8096685 8.83932446,18.4387842 L11.6847826,16.2030674 L11.6847826,7.33695652 C11.6847826,6.73664728 12.1714299,6.25 12.7717391,6.25 L18.2065217,6.25 C18.806831,6.25 19.2934783,6.73664728 19.2934783,7.33695652 L19.2934783,10.2248065 L24.0567158,6.4822625 C24.4508587,6.17257935 25.005663,6.17257935 25.399806,6.4822625 L40.6171973,18.4387842 C41.0892315,18.8096685 41.1712304,19.4929891 40.8003462,19.9650234 C40.429462,20.4370576 39.7461413,20.5190565 39.2741071,20.1481723 L37.7717391,18.9677402 Z M13.8586957,14.4949929 L17.1195652,11.932881 L17.1195652,8.42391304 L13.8586957,8.42391304 L13.8586957,14.4949929 Z M7.84846522,40.9047315 C7.31878043,41.1872299 6.66037609,40.9868462 6.37787717,40.4571609 C6.0953788,39.9274761 6.2957625,39.2690717 6.82544783,38.9865728 C12.5722924,35.9215891 18.7298842,35.9215891 25.1910837,38.9621538 C31.0487245,41.7186908 36.4853359,41.7186908 41.6080565,38.9865728 C42.1377413,38.7040745 42.7961457,38.9044582 43.0786446,39.4341435 C43.3611429,39.9638283 43.1607592,40.6222326 42.6310739,40.9047315 C36.8842293,43.9697152 30.7266375,43.9697152 24.265438,40.9291505 C18.4077973,38.1726136 12.9711859,38.1726136 7.84846522,40.9047315 Z M7.84846522,34.3829924 C7.31878043,34.6654908 6.66037609,34.4651071 6.37787717,33.9354217 C6.0953788,33.405737 6.2957625,32.7473326 6.82544783,32.4648337 C12.5722924,29.39985 18.7298842,29.39985 25.1910837,32.4404147 C31.0487245,35.1969516 36.4853359,35.1969516 41.6080565,32.4648337 C42.1377413,32.1823353 42.7961457,32.382719 43.0786446,32.9124043 C43.3611429,33.4420891 43.1607592,34.1004935 42.6310739,34.3829924 C36.8842293,37.4479761 30.7266375,37.4479761 24.265438,34.4074114 C18.4077973,31.6508745 12.9711859,31.6508745 7.84846522,34.3829924 Z" id="Shape"></path>
                    </g>
                </g>
            </g>
        </g>
    </g>
</svg>