
<svg width="38px" height="35px" viewBox="0 0 38 35" version="1.1" xmlns="http://www.w3.org/2000/svg" xmlns:xlink="http://www.w3.org/1999/xlink">
    <g id="Page-1" stroke="none" stroke-width="1" fill="none" fill-rule="evenodd">
        <g id="iPhone-8-Copy-2" transform="translate(-258.000000, -368.000000)" fill="#3373C3">
            <g id="Group-2-Copy-3" transform="translate(195.000000, 338.000000)">
                <g id="Danger" transform="translate(57.000000, 24.000000)">
                    <g id="noun_Biological-Hazard_353759">
                        <path d="M26.4475,7.40916667 L43.54625,38.49875 C43.82625,39.0054167 43.8175,39.63375 43.5208333,40.1354167 C43.225,40.63625 42.6804167,40.9470833 42.0991667,40.9470833 L7.90083333,40.9470833 C7.32041667,40.9470833 6.77583333,40.6366667 6.47958333,40.1366667 C6.18333333,39.635 6.17333333,39.0075 6.45375,38.4983333 L23.5529167,7.40958333 C23.8433333,6.88166667 24.3979167,6.55333333 25,6.55333333 C25.6025,6.55333333 26.1566667,6.88166667 26.4475,7.40916667 Z M8.44541667,38.9729167 L41.5541667,38.9729167 L25,8.87375 L8.44541667,38.9729167 Z M18.2558333,28.5166667 C16.6941667,29.4183333 16.0133333,31.2566667 16.5054167,32.91625 L16.47875,32.93 C15.6120833,30.5979167 16.3158333,27.68625 18.4733333,26.4454167 C18.86625,26.21375 19.28875,26.0554167 19.7204167,25.9679167 C19.5720833,25.525 19.4895833,25.0645833 19.4895833,24.5808333 C19.4895833,22.0916667 21.6616667,20.0233333 24.11125,19.6125 L24.11125,19.6404167 C22.4291667,20.0433333 21.1791667,21.54875 21.1791667,23.3504167 C21.1791667,25.3975 22.7920833,27.065 24.81375,27.165 L24.81375,27.95125 C24.6925,27.97875 24.5729167,28.0166667 24.46625,28.0829167 C24.3004167,28.1783333 24.1583333,28.3208333 24.0591667,28.4845833 C23.9645833,28.655 23.9116667,28.8441667 23.9116667,29.0408333 C23.9116667,29.1754167 23.9358333,29.2966667 23.975,29.4183333 L23.3716667,29.765 C22.2741667,28.0645833 20.0258333,27.4945833 18.2558333,28.5166667 Z M22.8208333,26.1766667 C22.4754167,25.9166667 22.1804167,25.5866667 21.9516667,25.2158333 C22.7858333,24.5458333 23.8454167,24.1358333 24.99875,24.1358333 C26.1704167,24.1358333 27.24,24.5466667 28.0775,25.24 C27.8525,25.6091667 27.5575,25.9341667 27.21125,26.2083333 C26.60375,25.7254167 25.8358333,25.4308333 24.99875,25.4308333 C24.1808333,25.4308333 23.4254167,25.7104167 22.8208333,26.1766667 Z M20.1970833,28.25625 C20.6416667,28.2608333 21.07,28.3433333 21.4695833,28.5016667 C21.4479167,28.6670833 21.4333333,28.8283333 21.4333333,29.0004167 C21.4333333,30.5158333 22.3929167,31.8175 23.7383333,32.3316667 C23.6775,32.7641667 23.5383333,33.18125 23.33,33.5629167 C21.46875,32.8808333 20.13875,31.0895833 20.13875,29.0004167 C20.13875,28.7416667 20.1579167,28.4991667 20.1970833,28.25625 Z M28.8208333,23.3504167 C28.8208333,21.54875 27.5679167,20.0433333 25.8904167,19.64 L25.8904167,19.6125 C28.3375,20.0233333 30.5054167,22.0916667 30.5054167,24.5808333 C30.5054167,25.0645833 30.42375,25.525 30.2795833,25.9679167 C30.7133333,26.0554167 31.1295833,26.21375 31.5279167,26.4454167 C33.67875,27.6858333 34.3879167,30.5975 33.5220833,32.93 L33.4879167,32.91625 C33.985,31.25625 33.3020833,29.4183333 31.7404167,28.5166667 C29.97875,27.5020833 27.7408333,28.0554167 26.6383333,29.7475 L26.06625,29.4183333 C26.1133333,29.2966667 26.1354167,29.1754167 26.1354167,29.0408333 C26.1354167,28.8441667 26.0833333,28.655 25.9829167,28.4845833 C25.8916667,28.3208333 25.7495833,28.1783333 25.5804167,28.0829167 C25.47625,28.0166667 25.3554167,27.97875 25.23125,27.95125 L25.23125,27.165 C27.2279167,27.04375 28.8208333,25.3820833 28.8208333,23.3504167 Z M27.9216667,35.13875 C29.4820833,36.0395833 31.4158333,35.7095833 32.60375,34.4491667 L32.63,34.4666667 C31.0445833,36.3845833 28.1716667,37.22875 26.0141667,35.98875 C25.6320833,35.765 25.29,35.4879167 24.9983333,35.1675 C24.7079167,35.4879167 24.3675,35.765 23.98125,35.98875 C21.8245833,37.22875 18.9508333,36.385 17.36625,34.4666667 L17.3941667,34.4491667 C18.58,35.7095833 20.5120833,36.0395833 22.0729167,35.13875 C23.83375,34.1183333 24.475,31.9154167 23.57625,30.1295833 L24.1879167,29.77375 C24.2670833,29.8691667 24.3629167,29.94125 24.46625,30.0083333 C24.63125,30.0966667 24.8216667,30.1533333 25.02125,30.1533333 C25.2258333,30.1533333 25.4145833,30.0966667 25.5804167,30.0083333 C25.6845833,29.9408333 25.7795833,29.8691667 25.8579167,29.77375 L26.43,30.1045833 C25.5191667,31.8983333 26.1558333,34.1179167 27.9216667,35.13875 Z M26.30125,32.3145833 C27.6266667,31.7941667 28.5629167,30.5025 28.5629167,29.0008333 C28.5629167,28.82875 28.5458333,28.6683333 28.5283333,28.5033333 C28.9270833,28.34375 29.3604167,28.26125 29.7995833,28.2566667 C29.8383333,28.4995833 29.8629167,28.7420833 29.8629167,29.0008333 C29.8629167,31.0779167 28.5454167,32.8525 26.7075,33.5458333 C26.4995833,33.1641667 26.3604167,32.7479167 26.30125,32.3145833 Z" id="Combined-Shape"></path>
                    </g>
                </g>
            </g>
        </g>
    </g>
</svg>