
<svg width="38px" height="37px" viewBox="0 0 38 37" version="1.1" xmlns="http://www.w3.org/2000/svg" xmlns:xlink="http://www.w3.org/1999/xlink">
    <g id="Page-1" stroke="none" stroke-width="1" fill="none" fill-rule="evenodd">
        <g id="iPhone-8-Copy-2" transform="translate(-79.000000, -526.000000)" fill="#3373C3">
            <g id="Group-2-Copy-4" transform="translate(16.000000, 496.000000)">
                <g id="Usine" transform="translate(57.000000, 24.000000)">
                    <g id="Group">
                        <path d="M11.25,19.375 L11.25,20.625 C10.0769539,20.6235317 9.06212878,19.8079653 8.8082875,18.6627125 C8.24607954,18.4845861 7.80048533,18.0522544 7.60545797,17.4956835 C7.41043061,16.9391126 7.48871406,16.3232095 7.816775,15.833125 C6.58997552,15.1275315 5.99061501,13.6854703 6.35586534,12.3181768 C6.72111568,10.9508834 7.9597618,9.9998159 9.375,10 L10,10 L10,11.25 L9.375,11.25 C8.33946609,11.25 7.5,12.0894661 7.5,13.125 C7.5,14.1605339 8.33946609,15 9.375,15 C9.72017797,15 10,15.279822 10,15.625 C10,15.970178 9.72017797,16.25 9.375,16.25 C9.02982203,16.25 8.75,16.529822 8.75,16.875 C8.75,17.220178 9.02982203,17.5 9.375,17.5 C9.54077352,17.4999569 9.69976977,17.5657911 9.81698935,17.6830106 C9.93420894,17.8002302 10.0000431,17.9592265 10,18.125 C10.0007887,18.815029 10.559971,19.3742113 11.25,19.375 Z M16.8295313,16.15845 C16.5679251,17.6551504 15.2693898,18.7479203 13.75,18.75 L13.125,18.75 L13.125,17.5 L13.75,17.5 C14.7850656,17.4988702 15.6238702,16.6600656 15.625,15.625 C15.6249569,15.4592265 15.6907911,15.3002302 15.8080106,15.1830106 C15.9252302,15.0657911 16.0842265,14.9999569 16.25,15 C16.595178,15 16.875,14.720178 16.875,14.375 C16.875,14.029822 16.595178,13.75 16.25,13.75 C15.904822,13.75 15.625,13.470178 15.625,13.125 C15.625,12.779822 15.904822,12.5 16.25,12.5 C17.2855339,12.5 18.125,11.6605339 18.125,10.625 C18.125,9.58946609 17.2855339,8.75 16.25,8.75 L15.625,8.75 L15.625,7.5 L16.25,7.5 C17.6652382,7.4998159 18.9038843,8.45088335 19.2691347,9.81817681 C19.634385,11.1854703 19.0350245,12.6275315 17.808225,13.333125 C18.1349712,13.8212174 18.2140124,14.4342559 18.021757,14.989265 C17.8295016,15.5442742 17.3881861,15.9770609 16.8295313,16.15845 Z M21.9275,18.0725 C20.3403265,17.7765943 19.2398028,16.3204244 19.3883135,14.7127476 C19.5368242,13.1050708 20.8854784,11.8751461 22.5,11.875 L23.125,11.875 L23.125,13.125 L22.5,13.125 C21.4644661,13.125 20.625,13.9644661 20.625,15 C20.625,16.0355339 21.4644661,16.875 22.5,16.875 C22.6657735,16.8749569 22.8247698,16.9407911 22.9419894,17.0580106 C23.0592089,17.1752302 23.1250431,17.3342265 23.125,17.5 C23.1261298,18.5350656 23.9649344,19.3738702 25,19.375 L25.625,19.375 L25.625,20.625 L25,20.625 C23.4955039,20.6231089 22.2051666,19.5511526 21.9275,18.0725 Z M31.838075,16.1944563 C31.5492942,18.3704493 29.6950698,19.9970537 27.5,20 L26.875,20 L26.875,18.75 L27.5,18.75 C29.2250503,18.7479749 30.6229749,17.3500503 30.625,15.625 C30.6249569,15.4592265 30.6907911,15.3002302 30.8080106,15.1830106 C30.9252302,15.0657911 31.0842265,14.9999569 31.25,15 C32.2850656,14.9988702 33.1238702,14.1600656 33.125,13.125 L33.125,12.5 L34.375,12.5 L34.375,13.125 C34.373047,14.6234862 33.3093952,15.9104113 31.838075,16.1944563 Z M33.75,18.75 L34.375,18.75 C35.4100656,18.7488702 36.2488702,17.9100656 36.25,16.875 C36.2499569,16.7092265 36.3157911,16.5502302 36.4330106,16.4330106 C36.5502302,16.3157911 36.7092265,16.2499569 36.875,16.25 C37.9100656,16.2488702 38.7488702,15.4100656 38.75,14.375 C38.7499569,14.2092265 38.8157911,14.0502302 38.9330106,13.9330106 C39.0502302,13.8157911 39.2092265,13.7499569 39.375,13.75 C41.1008898,13.75 42.5,12.3508898 42.5,10.625 C42.5,8.89911016 41.1008898,7.5 39.375,7.5 L38.75,7.5 L38.75,6.25 L39.375,6.25 C41.6804937,6.25021738 43.5902426,8.03940164 43.7405925,10.3399877 C43.8909425,12.6405738 42.2302994,14.6630935 39.9444437,14.9633688 C39.7000738,16.2249877 38.7103594,17.2096236 37.4475,17.4475 C37.1698357,18.9261539 35.879497,19.9981114 34.375,20 L33.75,20 L33.75,18.75 Z M43.125,36.875 C43.2907735,36.8749569 43.4497698,36.9407911 43.5669894,37.0580106 C43.6842089,37.1752302 43.75,37.3342265 43.75,37.5 L43.75,41.875 C43.75,42.0407735 43.6842089,42.1997698 43.5669894,42.3169894 C43.4497698,42.4342089 43.2907735,42.5 43.125,42.5 L10,42.5 C9.8272829,42.5 9.66230815,42.4283222 9.54417487,42.3023232 C9.42604159,42.1763242 9.36526529,42.0070862 9.37625,41.8347187 L10.62625,22.4597187 C10.6475051,22.1308526 10.9204477,21.875 11.25,21.875 L15,21.875 C15.3295643,21.875 15.6025254,22.1308406 15.6237812,22.4597187 L16.27155,32.5 L20.625,32.5 C20.7907735,32.4999569 20.9497698,32.5657911 21.0669894,32.6830106 C21.1842089,32.8002302 21.2500431,32.9592265 21.25,33.125 L21.25,35.625 L22.9018375,35.625 L23.75125,22.4597187 C23.7725051,22.1308526 24.0454477,21.875 24.375,21.875 L28.125,21.875 C28.4545643,21.875 28.7275254,22.1308406 28.7487812,22.4597187 L29.3561937,31.875 L30.6438062,31.875 L31.25125,22.4597187 C31.2725051,22.1308526 31.5454477,21.875 31.875,21.875 L35.625,21.875 C35.9545643,21.875 36.2275254,22.1308406 36.2487812,22.4597187 L36.8561937,31.875 L40,31.875 C40.1657735,31.8749569 40.3247698,31.9407911 40.4419894,32.0580106 C40.5592089,32.1752302 40.6250431,32.3342265 40.625,32.5 L40.625,36.875 L43.125,36.875 Z M35.4019937,28.75 L35.2407062,26.25 L32.2592937,26.25 L32.0980062,28.75 L35.4019937,28.75 Z M35.0390625,23.125 L32.4609625,23.125 L32.34,25 L35.160025,25 L35.0390625,23.125 Z M32.017325,30 L31.8963625,31.875 L35.6036375,31.875 L35.482675,30 L32.017325,30 Z M27.901875,28.75 L27.740625,26.25 L24.7592875,26.25 L24.598,28.75 L27.901875,28.75 Z M27.9825,30 L24.5173625,30 L24.3560437,32.5 L28.125,32.5 C28.1282839,32.4762446 28.1330304,32.4527145 28.1392125,32.4295437 L27.9825,30 Z M28.125,33.75 L24.2754,33.75 L24.1141125,36.25 L28.125,36.25 L28.125,33.75 Z M27.5390625,23.125 L24.9609625,23.125 L24.84,25 L27.6599875,25 L27.5390625,23.125 Z M11.2310437,32.5 L15.0189562,32.5 L14.8576375,30 L11.3923625,30 L11.2310437,32.5 Z M15.0996,33.75 L11.1504,33.75 L10.9891125,36.25 L15.2608875,36.25 L15.0996,33.75 Z M14.7769937,28.75 L14.6157062,26.25 L11.6342937,26.25 L11.4730062,28.75 L14.7769937,28.75 Z M14.4140625,23.125 L11.8359625,23.125 L11.715,25 L14.535025,25 L14.4140625,23.125 Z M10.6665062,41.25 L15.5834937,41.25 L15.3415312,37.5 L10.9084687,37.5 L10.6665062,41.25 Z M18.75,36.25 C18.7499569,36.0842265 18.8157911,35.9252302 18.9330106,35.8080106 C19.0502302,35.6907911 19.2092265,35.6249569 19.375,35.625 L20,35.625 L20,33.75 L16.3521937,33.75 L16.83605,41.25 L18.75,41.25 L18.75,36.25 Z M20,36.875 L20,41.25 L22.53895,41.25 L22.8212,36.875 L20,36.875 Z M24.0334687,37.5 L23.7915062,41.25 L28.125,41.25 L28.125,37.5 L24.0334687,37.5 Z M29.375,33.125 L29.375,41.25 L31.25,41.25 L31.25,35 C31.2499569,34.8342265 31.3157911,34.6752302 31.4330106,34.5580106 C31.5502302,34.4407911 31.7092265,34.3749569 31.875,34.375 L37.5,34.375 C37.6657735,34.3749569 37.8247698,34.4407911 37.9419894,34.5580106 C38.0592089,34.6752302 38.1250431,34.8342265 38.125,35 L38.125,36.875 L39.375,36.875 L39.375,33.125 L29.375,33.125 Z M33.75,37.5 C33.7499569,37.3342265 33.8157911,37.1752302 33.9330106,37.0580106 C34.0502302,36.9407911 34.2092265,36.8749569 34.375,36.875 L36.875,36.875 L36.875,35.625 L32.5,35.625 L32.5,41.25 L33.75,41.25 L33.75,37.5 Z M35,38.125 L35,41.25 L39.375,41.25 L39.375,38.125 L35,38.125 Z M42.5,41.25 L42.5,38.125 L40.625,38.125 L40.625,41.25 L42.5,41.25 Z" id="Combined-Shape"></path>
                    </g>
                </g>
            </g>
        </g>
    </g>
</svg>