
<svg width="36px" height="44px" viewBox="0 0 36 44" version="1.1" xmlns="http://www.w3.org/2000/svg" xmlns:xlink="http://www.w3.org/1999/xlink">
    <g id="Page-1" stroke="none" stroke-width="1" fill="none" fill-rule="evenodd">
        <g id="iPhone-8" transform="translate(-80.000000, -1061.000000)" fill="#3373C3">
            <g id="Group-14-Copy-4" transform="translate(16.000000, 1042.000000)">
                <g id="People" transform="translate(57.000000, 16.000000)">
                    <g id="fenêtre-copy-4">
                        <path d="M41.8162064,21.8295652 L35.8620023,20.3410435 L30.9518188,16.658087 C32.5687202,15.2227826 33.6096102,13.1535652 33.6096102,10.826087 C33.6096102,6.51078261 30.0987586,3 25.7833694,3 C21.4679801,3 17.9571285,6.51078261 17.9571285,10.826087 C17.9571285,12.5947826 18.5691405,14.210087 19.5630732,15.5217391 L19.5223766,15.5217391 C19.1075859,15.5217391 18.7084476,15.686087 18.4157462,15.9803478 L7.45900902,26.9368696 C6.846997,27.5488696 6.846997,28.538087 7.45900902,29.150087 L10.5895054,32.2805217 C11.1498642,32.8424348 12.0514471,32.894087 12.6744159,32.3963478 L17.9571285,28.1702609 L17.9571285,30.9813913 L16.5859711,36.4690435 L12.3942365,39.2629565 C11.6757876,39.7434783 11.4816968,40.713913 11.9606627,41.433913 L15.0911591,46.1295652 C15.3901215,46.5803478 15.8863052,46.826087 16.3934456,46.826087 C16.667364,46.826087 16.9459782,46.754087 17.1979831,46.6022609 L25.024224,41.9066087 C25.3450999,41.714087 25.5845829,41.4151304 25.7035417,41.0598261 L26.2576396,39.4006957 L30.7436408,46.1295652 C31.041038,46.5787826 31.5356564,46.826087 32.0443621,46.826087 C32.2807145,46.826087 32.5201975,46.7728696 32.744028,46.6617391 L39.0050207,43.5313043 C39.7782533,43.1446957 40.0913029,42.204 39.7046866,41.4307826 L35.0089421,32.0394783 C34.9792023,31.9815652 34.9463322,31.9252174 34.9118967,31.872 L32.6125472,28.4222609 L39.6139022,29.5883478 C39.6999909,29.6024348 39.7860795,29.6086957 39.8706029,29.6086957 C40.5342681,29.6086957 41.1400191,29.1845217 41.3544582,28.538087 L42.9197064,23.8424348 C43.0574482,23.4276522 43.0167517,22.9753043 42.8070085,22.5933913 C42.5988305,22.2114783 42.2388234,21.936 41.8162064,21.8295652 Z M21.0876249,10.826087 C21.0876249,8.23721739 23.1944489,6.13043478 25.7833694,6.13043478 C28.3722898,6.13043478 30.4791139,8.23721739 30.4791139,10.826087 C30.4791139,13.4149565 28.3722898,15.5217391 25.7833694,15.5217391 C23.1944489,15.5217391 21.0876249,13.4149565 21.0876249,10.826087 Z M16.8661505,43.1509565 L15.4308179,40.9987826 L18.824276,38.7370435 C19.1482823,38.5210435 19.3799391,38.1907826 19.4754193,37.8135652 L20.4693518,33.8394783 L23.9426375,36.444 L22.9174,39.5212174 L16.8661505,43.1509565 Z M36.2047917,41.4307826 L32.5796769,43.2433043 L27.0856559,35.0008696 C27.0402637,34.932 26.972958,34.8834783 26.916609,34.8224348 C26.8665211,34.7676522 26.8242594,34.7113043 26.7663452,34.6643478 C26.7491275,34.6502609 26.7381708,34.629913 26.720953,34.6158261 L21.0876249,30.3913043 L21.0876249,24.9130435 C21.0876249,24.3104348 20.7432702,23.7641739 20.2001292,23.5027826 C19.6585533,23.2429565 19.0152363,23.3149565 18.5440966,23.6906087 L11.8119642,29.0765217 L10.7789004,28.0434783 L20.1703894,18.6521739 L27.5567955,18.6521739 L28.9295182,28.2657391 C28.9623884,28.4958261 29.0469118,28.718087 29.1768274,28.9121739 L32.25254,33.5264348 L36.2047917,41.4307826 Z M38.8077994,26.2794783 L31.6373976,25.0852174 L30.997211,20.6071304 L34.2357095,23.0347826 C34.4031911,23.16 34.5925861,23.2507826 34.7945031,23.3008696 L39.4166809,24.456 L38.8077994,26.2794783 Z" id="Shape" fill-rule="nonzero"></path>
                    </g>
                </g>
            </g>
        </g>
    </g>
</svg>