
<svg width="47px" height="42px" viewBox="0 0 47 42" version="1.1" xmlns="http://www.w3.org/2000/svg" xmlns:xlink="http://www.w3.org/1999/xlink">
    <g id="Page-1" stroke="none" stroke-width="1" fill="none" fill-rule="evenodd">
        <g id="iPhone-8" transform="translate(-254.000000, -1062.000000)" fill="#3373C3" stroke="#3373C3">
            <g id="Group-14-Copy-5" transform="translate(195.000000, 1042.000000)">
                <g id="Radio" transform="translate(57.000000, 16.000000)">
                    <g id="fenêtre-copy-5">
                        <path d="M43.7068335,13.8238008 L12.1021933,13.8238008 L33.3732569,6.67752867 C33.6896666,6.61024694 33.9391848,6.36700964 34.0145095,6.05241767 C34.0898343,5.7378257 33.9775385,5.40795696 33.7259136,5.20466704 C33.4742886,5.00137712 33.128188,4.96090366 32.8364477,5.10065172 L6.80120274,13.8238008 C4.48501899,13.8238008 2.60738107,15.7014388 2.60738107,18.0176225 L2.60738107,40.9662147 C2.60738107,43.2823984 4.48501899,45.1600363 6.80120274,45.1600363 L43.7068335,45.1600363 C46.0230172,45.1600363 47.9006551,43.2823984 47.9006551,40.9662147 L47.9006551,18.0176225 C47.9006551,15.7014388 46.0230172,13.8238008 43.7068335,13.8238008 Z M46.2231265,40.9662147 C46.2231265,42.3559249 45.0965437,43.4825077 43.7068335,43.4825077 L6.80120274,43.4825077 C5.41149249,43.4825077 4.28490974,42.3559249 4.28490974,40.9662147 L4.28490974,18.0176225 C4.28490974,16.6279122 5.41149249,15.5013295 6.80120274,15.5013295 L43.7068335,15.5013295 C45.0965437,15.5013295 46.2231265,16.6279122 46.2231265,18.0176225 L46.2231265,40.9662147 Z" id="Shape" stroke-width="0.92" fill-rule="nonzero"></path>
                        <path d="M40.0833715,22.5469413 L31.3602224,22.5469413 C30.8969857,22.5469413 30.5214581,22.9224774 30.5214581,23.3857142 L30.5214581,26.8078727 C30.5214581,27.2711094 30.8969857,27.646637 31.3602224,27.646637 L40.0833715,27.646637 C40.5466083,27.646637 40.9221359,27.2711094 40.9221359,26.8078727 L40.9221359,23.4528153 C40.9409039,23.2189826 40.8608913,22.9879757 40.7015125,22.8158467 C40.5421338,22.6437176 40.3179551,22.5461979 40.0833715,22.5469413 Z M39.2446072,26.0362095 L32.1989868,26.0362095 L32.1989868,24.2244786 L39.2446072,24.2244786 L39.2446072,26.0362095 Z" id="Shape" stroke-width="0.92" fill-rule="nonzero"></path>
                        <path d="M35.721797,29.5254692 C33.8132616,29.5254692 32.266088,31.0726428 32.266088,32.9811782 C32.266088,34.8897136 33.8132616,36.4368873 35.721797,36.4368873 C37.6303324,36.4368873 39.1775061,34.8897136 39.1775061,32.9811782 C39.1775061,31.0726428 37.6303324,29.5254692 35.721797,29.5254692 Z M35.721797,34.7593586 C35.0025901,34.7593586 34.354201,34.3261189 34.0789725,33.6616584 C33.803744,32.9971979 33.9558775,32.2323708 34.4644336,31.7238148 C34.9729896,31.2152588 35.7378167,31.0631252 36.4022772,31.3383537 C37.0667376,31.6135823 37.4999774,32.2619713 37.4999774,32.9811782 C37.4908766,33.9594456 36.7000644,34.7502578 35.721797,34.7593586 Z" id="Shape" stroke-width="0.92" fill-rule="nonzero"></path>
                        <path d="M18.2754988,38.1816469 C14.7578631,38.1950988 11.5790377,36.0865789 10.2234754,32.8405972 C8.86791313,29.5946156 9.60305402,25.8515748 12.0856009,23.3594056 C14.5681478,20.8672365 18.3083167,20.1176213 21.559518,21.4606165 C24.8107194,22.8036117 26.9315468,25.9742566 26.9315468,29.4919185 C26.9315468,34.2779795 23.0615241,38.1630381 18.2754988,38.1816469 L18.2754988,38.1816469 Z M18.2754988,22.479688 C15.4363677,22.4662642 12.8692337,24.1660604 11.7733194,26.7851865 C10.6774051,29.4043128 11.2690183,32.4258154 13.2717901,34.4382158 C15.2745618,36.4506163 18.2931922,37.0567142 20.9175444,35.9733743 C23.5418967,34.8900343 25.2540181,32.3310822 25.2540181,29.4919185 C25.2540181,25.6323239 22.1350494,22.4983157 18.2754988,22.479688 Z" id="Shape" stroke-width="0.92" fill-rule="nonzero"></path>
                    </g>
                </g>
            </g>
        </g>
    </g>
</svg>