
<svg width="42px" height="40px" viewBox="0 0 42 40" version="1.1" xmlns="http://www.w3.org/2000/svg" xmlns:xlink="http://www.w3.org/1999/xlink">
    <g id="Page-1" stroke="none" stroke-width="1" fill="none" fill-rule="evenodd">
        <g id="iPhone-8" transform="translate(-256.000000, -901.000000)" fill="#3373C3">
            <g id="Group-14-Copy-3" transform="translate(195.000000, 880.000000)">
                <g id="School" transform="translate(57.000000, 16.000000)">
                    <g id="fenêtre-copy-3">
                        <path d="M24.8020324,5.16479191 C24.3499943,5.22901521 24.0155073,5.61823651 24.0200011,6.07479196 L24.0200011,11.9044798 L16.2992195,16.1985425 C16.0096547,16.3588851 15.829974,16.6637978 15.8300006,16.9947925 L15.8300006,20.279324 L4.59718753,24.3174492 C4.23408854,24.4503502 3.99460346,24.7981738 3.99982419,25.184793 L3.99982419,43.384794 C3.99982419,43.8873524 4.40744169,44.2947941 4.91000005,44.2947941 L44.9500022,44.2947941 C45.4525606,44.2947941 45.8601781,43.8873524 45.8601781,43.384794 L45.8601781,25.184793 C45.8653988,24.7981738 45.6259138,24.4503502 45.2628147,24.3174492 L34.0300017,20.279324 L34.0300017,16.9947925 C34.0300284,16.6637978 33.8503477,16.3588851 33.5607829,16.1985425 L25.8400012,11.9044798 L25.8400012,10.9376047 C26.4636656,11.2295691 27.0834312,11.4798237 27.7453138,11.5632298 C28.7270897,11.6869488 29.7646736,11.4990975 30.8023452,10.980261 C31.1074232,10.8251656 31.2996991,10.5120305 31.3000015,10.1697922 L31.3000015,6.98479201 C31.3046868,6.66596223 31.142169,6.3679339 30.8716095,6.1991978 C30.6010498,6.03046169 30.2619142,6.01563098 29.9776577,6.16010446 C29.2847054,6.50658243 28.6590184,6.52360853 27.8875013,6.33072947 C27.1159842,6.13785041 26.2523449,5.70510444 25.3423449,5.25010441 C25.1752503,5.16693373 24.9866237,5.13715059 24.8020324,5.16479191 Z M25.8400012,7.51088579 C26.3516637,7.73881805 26.8761768,7.95477471 27.4325013,8.09385457 C28.0776213,8.25513388 28.7776479,8.25666723 29.4800014,8.15072958 L29.4800014,9.5299484 C28.9409415,9.72545736 28.4511003,9.81771772 27.9728138,9.75744841 C27.3459753,9.67845586 26.6653176,9.39297065 25.8400012,8.91854212 L25.8400012,7.51088579 Z M24.9300011,13.4827611 L32.2100015,17.5351051 L32.2100015,42.4747939 L28.5700013,42.4747939 L28.5700013,34.7397935 C28.5699511,34.2372352 28.1625597,33.8298437 27.6600013,33.8297935 L22.2000008,33.8297935 C22.1715792,33.8284599 22.1431104,33.8284599 22.1146885,33.8297935 C21.6457149,33.8739928 21.2879698,34.2687461 21.290001,34.7397935 L21.290001,42.4747939 L17.6500008,42.4747939 L17.6500008,17.5351051 L24.9300011,13.4827611 Z M24.9300011,16.0847925 C22.6791743,16.0847925 20.8350009,17.9289668 20.8350009,20.1797927 C20.8350009,22.4306187 22.6791743,24.274793 24.9300011,24.274793 C27.180828,24.274793 29.0250014,22.4306187 29.0250014,20.1797927 C29.0250014,17.9289668 27.180828,16.0847925 24.9300011,16.0847925 Z M24.9300011,17.9047926 C26.197229,17.9047926 27.2050011,18.9125676 27.2050011,20.1797927 C27.2050011,21.4470179 26.197229,22.4547926 24.9300011,22.4547926 C23.6627738,22.4547926 22.6550011,21.4470179 22.6550011,20.1797927 C22.6550011,18.9125676 23.6627738,17.9047926 24.9300011,17.9047926 Z M15.8300006,22.2130741 L15.8300006,42.4747939 L5.8200001,42.4747939 L5.8200001,25.8246368 L15.8300006,22.2130741 Z M34.0300017,22.2130741 L44.0400022,25.8246368 L44.0400022,42.4747939 L34.0300017,42.4747939 L34.0300017,22.2130741 Z M20.2946884,25.639793 C19.8257148,25.6839924 19.4679697,26.0787456 19.4699837,26.5497931 L19.4699837,31.0997934 C19.4699837,31.6023517 19.8774426,32.0097934 20.3800009,32.0097934 L29.4800014,32.0097934 C29.9825598,32.0097934 30.3900015,31.6023517 30.3900015,31.0997934 L30.3900015,26.5497931 C30.3900015,26.0472347 29.9825598,25.6398432 29.4800014,25.639793 L20.3800009,25.639793 C20.351579,25.6384595 20.3231102,25.6384595 20.2946884,25.639793 L20.2946884,25.639793 Z M8.46468775,26.5497931 C7.99571412,26.5939925 7.63796903,26.9887457 7.63998306,27.4597932 L7.63998306,31.0997934 C7.63998306,31.6023517 8.0474419,32.0097934 8.55000025,32.0097934 L13.1000005,32.0097934 C13.6025588,32.0097934 14.0100006,31.6023517 14.0100006,31.0997934 L14.0100006,27.4597932 C14.0100006,26.9572348 13.6025588,26.5498433 13.1000005,26.5497931 L8.55000025,26.5497931 C8.52157838,26.5484595 8.49310961,26.5484595 8.46468775,26.5497931 Z M36.6746893,26.5497931 C36.2057156,26.5939925 35.8479706,26.9887457 35.8499846,27.4597932 L35.8499846,31.0997934 C35.8499846,31.6023517 36.2574435,32.0097934 36.7600018,32.0097934 L41.310002,32.0097934 C41.8125604,32.0097934 42.2200021,31.6023517 42.2200021,31.0997934 L42.2200021,27.4597932 C42.2200021,26.9572348 41.8125604,26.5498433 41.310002,26.5497931 L36.7600018,26.5497931 C36.7315799,26.5484595 36.7031111,26.5484595 36.6746893,26.5497931 Z M21.290001,27.4597932 L28.5700013,27.4597932 L28.5700013,30.1897933 L21.290001,30.1897933 L21.290001,27.4597932 Z M9.4600003,28.3697932 L12.1900004,28.3697932 L12.1900004,30.1897933 L9.4600003,30.1897933 L9.4600003,28.3697932 Z M37.6700018,28.3697932 L40.400002,28.3697932 L40.400002,30.1897933 L37.6700018,30.1897933 L37.6700018,28.3697932 Z M8.46468775,33.8297935 C7.99571412,33.8739928 7.63796903,34.2687461 7.63998306,34.7397935 L7.63998306,38.3797937 C7.63998306,38.8823521 8.0474419,39.2897938 8.55000025,39.2897938 L13.1000005,39.2897938 C13.6025588,39.2897938 14.0100006,38.8823521 14.0100006,38.3797937 L14.0100006,34.7397935 C14.0100006,34.2372352 13.6025588,33.8298437 13.1000005,33.8297935 L8.55000025,33.8297935 C8.52157838,33.8284599 8.49310961,33.8284599 8.46468775,33.8297935 Z M36.6746893,33.8297935 C36.2057156,33.8739928 35.8479706,34.2687461 35.8499846,34.7397935 L35.8499846,38.3797937 C35.8499846,38.8823521 36.2574435,39.2897938 36.7600018,39.2897938 L41.310002,39.2897938 C41.8125604,39.2897938 42.2200021,38.8823521 42.2200021,38.3797937 L42.2200021,34.7397935 C42.2200021,34.2372352 41.8125604,33.8298437 41.310002,33.8297935 L36.7600018,33.8297935 C36.7315799,33.8284599 36.7031111,33.8284599 36.6746893,33.8297935 Z M9.4600003,35.6497936 L12.1900004,35.6497936 L12.1900004,37.4697937 L9.4600003,37.4697937 L9.4600003,35.6497936 Z M23.1100011,35.6497936 L26.7500013,35.6497936 L26.7500013,42.4747939 L23.1100011,42.4747939 L23.1100011,35.6497936 Z M37.6700018,35.6497936 L40.400002,35.6497936 L40.400002,37.4697937 L37.6700018,37.4697937 L37.6700018,35.6497936 Z" id="Shape" fill-rule="nonzero"></path>
                    </g>
                </g>
            </g>
        </g>
    </g>
</svg>