
<svg width="40px" height="47px" viewBox="0 0 40 47" version="1.1" xmlns="http://www.w3.org/2000/svg" xmlns:xlink="http://www.w3.org/1999/xlink">
    <g id="Page-1" stroke="none" stroke-width="1" fill="none" fill-rule="evenodd">
        <g id="iPhone-8" transform="translate(-78.000000, -897.000000)" fill="#3373C3" stroke="#3373C3">
            <g id="Group-14-Copy-2" transform="translate(16.000000, 880.000000)">
                <g id="Water" transform="translate(57.000000, 16.000000)">
                    <g id="fenêtre-copy-2">
                        <path d="M43.8027355,18.5254398 L25.774983,18.5254398 C25.5613128,18.5254398 25.3577543,18.6164368 25.2152587,18.7756534 C25.072763,18.9348701 25.0048169,19.1472372 25.0284275,19.3595989 L27.8846056,45.0647326 C28.0103268,46.2064797 28.9755308,47.0704368 30.1241783,47.0693831 L39.4535402,47.0693831 C40.6021876,47.0704368 41.5673916,46.2064797 41.6931128,45.0647326 L44.549291,19.3595989 C44.5729015,19.1472372 44.5049554,18.9348701 44.3624598,18.7756534 C44.2199641,18.6164368 44.0164057,18.5254398 43.8027355,18.5254398 Z M39.4535402,45.5670691 L30.1241783,45.5670691 C29.7413035,45.567401 29.4195927,45.279399 29.3777166,44.898821 L29.2850427,44.0647558 L40.2926757,44.0647558 L40.2000018,44.898821 C40.1581257,45.279399 39.8364149,45.567401 39.4535402,45.5670691 Z M40.4600897,42.5624431 L29.1180982,42.5624431 L26.9481014,23.0323779 L38.544641,23.0323779 C38.9594932,23.0323779 39.2957973,22.6960737 39.2957973,22.2812215 C39.2957973,21.8663693 38.9594932,21.5300652 38.544641,21.5300652 L26.7811569,21.5300652 L26.6142124,20.0277524 L42.963506,20.0277524 L42.7965615,21.5300652 L41.5492664,21.5300652 C41.1344142,21.5300652 40.79811,21.8663693 40.79811,22.2812215 C40.79811,22.6960737 41.1344142,23.0323779 41.5492664,23.0323779 L42.629617,23.0323779 L40.4600897,42.5624431 Z" id="Shape" stroke-width="0.5" fill-rule="nonzero"></path>
                        <path d="M5.49375389,40.308974 C5.49794715,44.0409063 8.52223068,47.0651898 12.254163,47.0693812 L18.2634138,47.0693812 C21.9953461,47.0651898 25.0196296,44.0409063 25.0238229,40.308974 L25.0238229,32.7974105 C25.0243324,32.2427641 24.8194231,31.7075782 24.448623,31.2950978 C24.8194231,30.8826173 25.0243324,30.3474314 25.0238229,29.7927851 L25.0238229,28.2904723 C25.0243324,27.735826 24.8194231,27.2006401 24.448623,26.7881596 C24.8194231,26.3756792 25.0243324,25.8404933 25.0238229,25.285847 L25.0238229,23.7835343 C25.0243324,23.2288879 24.8194231,22.693702 24.448623,22.2812215 C24.8194231,21.8687411 25.0243324,21.3335552 25.0238229,20.7789088 L25.0238229,14.769658 C25.0196296,11.0377257 21.9953461,8.01344218 18.2634138,8.00925082 L18.2634138,6.50693812 C18.678266,6.50693812 19.0145701,6.17063397 19.0145701,5.75578177 L19.0145701,2.75115635 C19.0145701,2.33630415 18.678266,2 18.2634138,2 L12.254163,2 C11.8393108,2 11.5030066,2.33630415 11.5030066,2.75115635 L11.5030066,5.75578177 C11.5030066,6.17063397 11.8393108,6.50693812 12.254163,6.50693812 L12.254163,8.00925082 C8.52223068,8.01344218 5.49794715,11.0377257 5.49375389,14.769658 L5.49375389,20.7789088 C5.49324437,21.3335552 5.69815367,21.8687411 6.06895377,22.2812215 C5.69815367,22.693702 5.49324437,23.2288879 5.49375389,23.7835343 L5.49375389,25.285847 C5.49324437,25.8404933 5.69815367,26.3756792 6.06895377,26.7881596 C5.69815367,27.2006401 5.49324437,27.735826 5.49375389,28.2904723 L5.49375389,29.7927851 C5.49324437,30.3474314 5.69815367,30.8826173 6.06895377,31.2950978 C5.69815367,31.7075782 5.49324437,32.2427641 5.49375389,32.7974105 L5.49375389,40.308974 Z M23.5215083,40.308974 C23.5182483,43.211588 21.1660278,45.5638085 18.2634138,45.5670685 L12.254163,45.5670685 C9.35154897,45.5638085 6.99932844,43.211588 6.9960685,40.308974 L6.9960685,32.7974105 C6.9965342,32.3827513 7.33256571,32.0467198 7.74722485,32.0462542 L22.7703519,32.0462542 C23.185011,32.0467198 23.5210425,32.3827513 23.5215083,32.7974105 L23.5215083,40.308974 Z M23.5215083,29.7927851 C23.5210425,30.2074442 23.185011,30.5434757 22.7703519,30.5439414 L7.74722485,30.5439414 C7.33256571,30.5434757 6.9965342,30.2074442 6.9960685,29.7927851 L6.9960685,28.2904723 C6.9965342,27.8758132 7.33256571,27.5397817 7.74722485,27.539316 L22.7703519,27.539316 C23.185011,27.5397817 23.5210425,27.8758132 23.5215083,28.2904723 L23.5215083,29.7927851 Z M23.5215083,25.285847 C23.5210425,25.7005061 23.185011,26.0365376 22.7703519,26.0370033 L7.74722485,26.0370033 C7.33256571,26.0365376 6.9965342,25.7005061 6.9960685,25.285847 L6.9960685,23.7835343 C6.9965342,23.3688751 7.33256571,23.0328436 7.74722485,23.0323779 L22.7703519,23.0323779 C23.185011,23.0328436 23.5210425,23.3688751 23.5215083,23.7835343 L23.5215083,25.285847 Z M22.7703519,21.5300652 L7.74722485,21.5300652 C7.33256571,21.5295995 6.9965342,21.193568 6.9960685,20.7789088 L6.9960685,17.0231271 L12.254163,17.0231271 C12.254163,18.6825359 13.5993796,20.0277524 15.2587884,20.0277524 C16.9181972,20.0277524 18.2634138,18.6825359 18.2634138,17.0231271 L23.5215083,17.0231271 L23.5215083,20.7789088 C23.5210425,21.193568 23.185011,21.5295995 22.7703519,21.5300652 Z M13.7564757,17.0231271 C13.7564757,16.6357182 14.3179651,15.59593 15.2587884,14.4269429 C16.1997056,15.5960239 16.7611011,16.6357182 16.7611011,17.0231271 C16.7611011,17.8528314 16.0884928,18.5254398 15.2587884,18.5254398 C14.429084,18.5254398 13.7564757,17.8528314 13.7564757,17.0231271 Z M13.0053193,3.50231271 L17.5122574,3.50231271 L17.5122574,5.00462542 L13.0053193,5.00462542 L13.0053193,3.50231271 Z M13.7564757,6.50693812 L16.7611011,6.50693812 L16.7611011,8.00925082 L13.7564757,8.00925082 L13.7564757,6.50693812 Z M12.254163,9.51156353 L18.2634138,9.51156353 C21.1660278,9.51482348 23.5182483,11.867044 23.5215083,14.769658 L23.5215083,15.5208144 L17.7986358,15.5208144 C17.1720775,14.3109832 16.1017736,13.0819975 15.817461,12.7656667 C15.6749863,12.6069056 15.4717297,12.5162086 15.2584128,12.5162086 C15.0450959,12.5162086 14.8418393,12.6069056 14.6993647,12.7656667 C14.6752338,12.7925206 14.1022893,13.4329753 13.5218332,14.2398111 C13.2233504,14.6474404 12.9538071,15.0754905 12.7151852,15.5208144 L6.9960685,15.5208144 L6.9960685,14.769658 C6.99932844,11.867044 9.35154897,9.51482348 12.254163,9.51156353 Z" id="Shape" stroke-width="0.5" fill-rule="nonzero"></path>
                    </g>
                </g>
            </g>
        </g>
    </g>
</svg>