
<svg width="44px" height="35px" viewBox="0 0 44 35" version="1.1" xmlns="http://www.w3.org/2000/svg" xmlns:xlink="http://www.w3.org/1999/xlink">
    <g id="Page-1" stroke="none" stroke-width="1" fill="none" fill-rule="evenodd">
        <g id="iPhone-8" transform="translate(-76.000000, -741.000000)" fill="#3373C3">
            <g id="Group-14" transform="translate(16.000000, 718.000000)">
                <g id="Window" transform="translate(57.000000, 16.000000)">
                    <g id="fenêtre">
                        <path d="M45.3310345,39.4146068 L42.1903425,39.4146068 L42.1903425,8.28556521 C42.1903425,7.64278257 41.6896529,7.13773912 41.0524115,7.13773912 L8.68965483,7.13773912 C8.05241349,7.13773912 7.55172386,7.64278257 7.55172386,8.28556521 L7.55172386,39.4146068 L4.36551723,39.4146068 C3.72827582,39.4146068 3.22758619,39.9196502 3.22758619,40.5624328 C3.22758619,41.2052153 3.72827582,41.7102588 4.36551723,41.7102588 L45.3310345,41.7102588 C45.9682733,41.7102588 46.4689655,41.2052153 46.4689655,40.5624328 C46.4689655,39.9655632 45.9682733,39.4146068 45.3310345,39.4146068 Z M39.8689633,39.4146068 L25.9862055,39.4146068 L25.9862055,25.5947815 L39.8689633,25.5947815 L39.8689633,39.4146068 Z M39.8689633,23.2991294 L25.9862055,23.2991294 L25.9862055,9.4793042 L39.8689633,9.4793042 L39.8689633,23.2991294 Z M23.7103436,9.4793042 L23.7103436,23.2991294 L9.8275858,23.2991294 L9.8275858,9.4793042 L23.7103436,9.4793042 Z M9.8275858,25.5947815 L23.6648264,25.5947815 L23.6648264,39.4146068 L9.8275858,39.4146068 L9.8275858,25.5947815 Z" id="Shape" fill-rule="nonzero"></path>
                        <path d="M30.264826,14.6215648 L34.5889636,18.9833037 C34.8165498,19.2128688 35.0896533,19.3046949 35.408274,19.3046949 C35.7268946,19.3046949 35.999998,19.2128688 36.2275842,18.9833037 C36.6827566,18.5241732 36.6827566,17.7895646 36.2275842,17.3304342 L31.9034465,12.9686953 C31.4482742,12.5095649 30.7199983,12.5095649 30.264826,12.9686953 C29.8096536,13.4278257 29.8096536,14.1624344 30.264826,14.6215648 Z" id="Path" fill-rule="nonzero"></path>
                        <path d="M35.999998,15.0347821 C36.2275842,15.2643474 36.5006877,15.3561734 36.8193083,15.3561734 C37.137929,15.3561734 37.4110324,15.2643474 37.6386186,15.0347821 C38.093791,14.5756517 38.093791,13.8410431 37.6386186,13.3819127 L35.8179291,11.545391 C35.3627567,11.0862606 34.6344809,11.0862606 34.1793085,11.545391 C33.7241361,12.0045214 33.7241361,12.7391301 34.1793085,13.1982605 L35.999998,15.0347821 Z" id="Path" fill-rule="nonzero"></path>
                    </g>
                </g>
            </g>
        </g>
    </g>
</svg>