<?xml version="1.0" standalone="no"?>
<!DOCTYPE svg PUBLIC "-//W3C//DTD SVG 20010904//EN"
 "http://www.w3.org/TR/2001/REC-SVG-20010904/DTD/svg10.dtd">
<svg version="1.0" xmlns="http://www.w3.org/2000/svg"
 width="700.000000pt" height="700.000000pt" viewBox="0 0 700.000000 700.000000"
 preserveAspectRatio="xMidYMid meet">
<metadata>
Created by potrace 1.11, written by Peter Selinger 2001-2013
</metadata>
<g transform="translate(0.000000,700.000000) scale(0.100000,-0.100000)"
fill="#000000" stroke="none">
<path d="M3637 6104 c-74 -18 -197 -74 -250 -116 -163 -127 -256 -297 -273
-496 -23 -271 132 -538 381 -657 108 -52 172 -66 291 -64 108 3 173 -16 233
-67 69 -60 100 -138 137 -352 27 -160 49 -231 105 -347 128 -268 361 -477 644
-578 231 -82 506 -82 745 1 344 120 613 405 714 756 32 108 36 140 41 281 10
286 -87 554 -283 781 -57 66 -188 178 -243 208 -146 80 -259 127 -342 142 -17
2 -33 6 -36 8 -13 8 -141 20 -221 20 -129 0 -171 -6 -338 -53 -219 -61 -318
-61 -408 0 -56 38 -84 74 -135 169 -51 95 -107 166 -180 227 -54 44 -193 118
-239 127 -14 2 -44 9 -68 14 -60 14 -207 12 -275 -4z"/>
<path d="M1245 2514 c-11 -2 -44 -9 -73 -15 -187 -38 -342 -179 -406 -371 -23
-70 -37 -172 -37 -268 2 -407 236 -652 624 -651 56 1 113 3 127 6 13 2 41 7
62 10 49 8 132 36 199 69 101 51 93 21 93 318 1 173 -3 265 -10 272 -8 9 -351
14 -429 7 -7 -1 -11 -29 -11 -70 l1 -69 133 1 c73 0 136 -3 140 -7 3 -4 7 -80
7 -168 l0 -161 -29 -18 c-81 -49 -309 -64 -427 -29 -202 62 -296 216 -297 487
0 247 75 403 229 476 69 32 92 37 201 42 148 8 277 -29 396 -111 l63 -44 -3
92 -3 93 -45 24 c-110 57 -210 81 -360 86 -69 2 -134 2 -145 -1z"/>
<path d="M2435 2199 c-91 -12 -162 -46 -223 -108 -94 -92 -135 -205 -136 -371
0 -114 8 -174 35 -244 45 -122 130 -206 249 -246 55 -19 81 -21 170 -18 92 4
113 8 170 36 105 50 172 126 211 240 51 148 42 354 -20 485 -81 170 -250 254
-456 226z m202 -162 c47 -30 91 -89 118 -162 15 -39 19 -76 19 -165 0 -130 -9
-172 -56 -250 -101 -167 -344 -157 -432 19 -22 42 -28 61 -41 131 -7 34 -7
159 -1 190 3 14 9 39 12 55 18 85 99 183 169 205 16 5 62 8 100 6 55 -2 79 -8
112 -29z"/>
<path d="M3214 2181 c-10 -2 -21 -7 -24 -11 -12 -19 -3 -647 10 -700 30 -126
90 -203 188 -240 48 -19 72 -21 148 -17 113 5 168 29 240 104 l51 53 -1 -68
-1 -67 79 0 79 0 0 468 c0 257 -3 471 -7 474 -7 8 -136 6 -144 -2 -3 -2 -6
-143 -7 -312 -1 -308 -1 -308 -27 -364 -48 -106 -139 -160 -255 -154 -96 6
-143 39 -178 125 -17 40 -19 81 -20 373 -1 180 -4 330 -7 332 -6 7 -98 11
-124 6z"/>
<path d="M4224 2182 l-32 -3 21 -52 c11 -29 24 -61 28 -72 5 -11 18 -47 30
-80 11 -33 23 -67 26 -75 3 -8 61 -161 128 -340 l123 -325 106 -3 c102 -3 106
-2 116 20 5 13 70 187 145 388 75 201 140 374 145 385 25 58 57 155 52 156
-10 1 -113 1 -139 0 -16 -1 -25 -12 -36 -43 -9 -24 -45 -122 -82 -218 -37 -96
-75 -197 -84 -225 -46 -129 -114 -306 -116 -303 -3 3 -176 465 -258 688 -17
47 -34 88 -37 93 -7 8 -87 14 -136 9z"/>
<path d="M5220 1340 l0 -110 89 0 89 0 -2 108 -1 107 -87 3 -88 3 0 -111z"/>
</g>
</svg>
