<?xml version="1.0" encoding="UTF-8"?>
<svg width="16px" height="13px" viewBox="0 0 16 13" version="1.1" xmlns="http://www.w3.org/2000/svg" xmlns:xlink="http://www.w3.org/1999/xlink">
    <!-- Generator: Sketch 52.5 (67469) - http://www.bohemiancoding.com/sketch -->
    <title>alert-triangle</title>
    <desc>Created with Sketch.</desc>
    <g id="Symbols" stroke="none" stroke-width="1" fill="none" fill-rule="evenodd">
        <g id="General-/-Bottom-bar:urgence" transform="translate(-295.000000, -16.000000)" fill-rule="nonzero">
            <g id="rank-copy" transform="translate(245.000000, 15.000000)">
                <g id="alert-triangle" transform="translate(50.000000, 0.000000)">
                    <polygon id="Rectangle" fill="#000000" opacity="0" transform="translate(8.000000, 8.000000) rotate(90.000000) translate(-8.000000, -8.000000) " points="-2.13162821e-14 0 16 0 16 16 -2.13162821e-14 16"></polygon>
                    <path d="M15.04,10.8666667 L9.92666667,2.38666667 C9.50647907,1.72933334 8.78015685,1.33158435 8,1.33158435 C7.21984315,1.33158435 6.49352093,1.72933334 6.07333333,2.38666667 L0.96,10.8666667 C0.592364002,11.4794981 0.579656896,12.2419245 0.926666667,12.8666667 C1.32798242,13.5700919 2.07681988,14.0030931 2.88666667,14 L13.1133333,14 C13.9176694,14.0085829 14.6652209,13.586496 15.0733333,12.8933333 C15.430724,12.2617588 15.4179672,11.4861465 15.04,10.8666667 Z M8,11.3333333 C7.63181017,11.3333333 7.33333333,11.0348565 7.33333333,10.6666667 C7.33333333,10.2984768 7.63181017,10 8,10 C8.36818983,10 8.66666667,10.2984768 8.66666667,10.6666667 C8.66666667,11.0348565 8.36818983,11.3333333 8,11.3333333 Z M8.66666667,8.66666667 C8.66666667,9.0348565 8.36818983,9.33333333 8,9.33333333 C7.63181017,9.33333333 7.33333333,9.0348565 7.33333333,8.66666667 L7.33333333,6 C7.33333333,5.63181017 7.63181017,5.33333333 8,5.33333333 C8.36818983,5.33333333 8.66666667,5.63181017 8.66666667,6 L8.66666667,8.66666667 Z" id="Shape" fill="#AEAEAE"></path>
                </g>
            </g>
        </g>
    </g>
</svg>