<?xml version="1.0" encoding="UTF-8"?>
<svg width="12px" height="14px" viewBox="0 0 12 14" version="1.1" xmlns="http://www.w3.org/2000/svg" xmlns:xlink="http://www.w3.org/1999/xlink">
    <!-- Generator: Sketch 52.5 (67469) - http://www.bohemiancoding.com/sketch -->
    <title>home</title>
    <desc>Created with Sketch.</desc>
    <g id="Symbols" stroke="none" stroke-width="1" fill="none" fill-rule="evenodd" opacity="0.4">
        <g id="General-/-Bottom-bar:urgence" transform="translate(-182.000000, -16.000000)" fill-rule="nonzero">
            <g id="rank" transform="translate(152.000000, 15.000000)">
                <g id="home" transform="translate(28.000000, 0.000000)">
                    <rect id="Rectangle" fill="#000000" opacity="0" x="0" y="0" width="16" height="16"></rect>
                    <rect id="Rectangle" fill="#333333" x="6.66666667" y="9.33333333" width="2.66666667" height="4.66666667"></rect>
                    <path d="M13.6133333,6.78666667 L8.47333333,1.53333333 C8.3481556,1.4071249 8.17775836,1.33613445 8,1.33613445 C7.82224164,1.33613445 7.6518444,1.4071249 7.52666667,1.53333333 L2.38666667,6.79333333 C2.13543683,7.04659028 1.99616867,7.38995834 2,7.74666667 L2,13.3333333 C1.99892737,14.0419999 2.55240523,14.6276908 3.26,14.6666667 L5.33333333,14.6666667 L5.33333333,8.66666667 C5.33333333,8.29847683 5.63181017,8 6,8 L10,8 C10.3681898,8 10.6666667,8.29847683 10.6666667,8.66666667 L10.6666667,14.6666667 L12.74,14.6666667 C13.4475948,14.6276908 14.0010726,14.0419999 14,13.3333333 L14,7.74666667 C14.0005287,7.38862266 13.861879,7.04438905 13.6133333,6.78666667 Z" id="Path" fill="#333333"></path>
                </g>
            </g>
        </g>
    </g>
</svg>