<?xml version="1.0" encoding="UTF-8"?>
<svg width="12px" height="14px" viewBox="0 0 12 14" version="1.1" xmlns="http://www.w3.org/2000/svg" xmlns:xlink="http://www.w3.org/1999/xlink">
    <!-- Generator: Sketch 52.5 (67469) - http://www.bohemiancoding.com/sketch -->
    <title>pin</title>
    <desc>Created with Sketch.</desc>
    <g id="Symbols" stroke="none" stroke-width="1" fill="none" fill-rule="evenodd" opacity="0.4">
        <g id="General-/-Bottom-bar:urgence" transform="translate(-68.000000, -16.000000)" fill-rule="nonzero">
            <g id="rank" transform="translate(16.000000, 15.000000)">
                <g id="pin" transform="translate(50.000000, 0.000000)">
                    <rect id="Rectangle" fill="#000000" opacity="0" x="0" y="0" width="16" height="16"></rect>
                    <circle id="Oval" fill="#333333" cx="8" cy="6.33333333" r="1"></circle>
                    <path d="M8,1.33333333 C5.07518421,1.33318709 2.69591482,3.68866379 2.66666667,6.61333333 C2.66666667,10.2666667 7.36666667,14.3333333 7.56666667,14.5066667 C7.81614934,14.7200585 8.18385066,14.7200585 8.43333333,14.5066667 C8.66666667,14.3333333 13.3333333,10.2666667 13.3333333,6.61333333 C13.3040852,3.68866379 10.9248158,1.33318709 8,1.33333333 Z M8,8.66666667 C6.71133558,8.66666667 5.66666667,7.62199775 5.66666667,6.33333333 C5.66666667,5.04466892 6.71133558,4 8,4 C9.28866442,4 10.3333333,5.04466892 10.3333333,6.33333333 C10.3333333,6.95217181 10.0875007,7.54566427 9.64991582,7.98324916 C9.21233094,8.42083404 8.61883848,8.66666667 8,8.66666667 Z" id="Shape" fill="#333333"></path>
                </g>
            </g>
        </g>
    </g>
</svg>